<?xml version="1.0" ?><!DOCTYPE svg  PUBLIC '-//W3C//DTD SVG 1.1//EN'  'http://www.w3.org/Graphics/SVG/1.1/DTD/svg11.dtd'><svg enable-background="new 0 0 128 128" height="128px" version="1.1" viewBox="0 0 128 128" width="128px" xml:space="preserve" xmlns="http://www.w3.org/2000/svg" xmlns:xlink="http://www.w3.org/1999/xlink"><g id="Layer_2"/><g id="Layer_1"><path d="M102.656,82.955l-11.392-6.532l9.901-4.35c1.379-0.606,2.014-2.22,1.41-3.604   c-0.592-1.339-2.255-1.996-3.605-1.406L85.364,73.04l-15.865-9.098l15.789-9.114l13.76,5.992c1.397,0.602,3.014-0.087,3.591-1.42   c0.599-1.384-0.037-2.996-1.416-3.594l-10.05-4.376l11.45-6.61c0.632-0.365,1.084-0.955,1.272-1.661s0.091-1.442-0.275-2.074   c-0.728-1.252-2.472-1.728-3.734-1.001l-11.373,6.565l1.218-10.746c0.084-0.729-0.122-1.446-0.579-2.02   c-0.455-0.57-1.104-0.928-1.823-1.007c-1.53-0.181-2.87,0.925-3.027,2.416l-1.545,14.761L67,59.22V41.017l11.925-8.912   c0.564-0.414,0.933-1.026,1.039-1.724c0.11-0.729-0.084-1.493-0.53-2.097c-0.871-1.181-2.535-1.452-3.729-0.573L67,34.204V21.009   c0-1.61-1.585-2.732-3.008-2.732c-1.415,0-2.992,1.122-2.992,2.732v13.115l-8.573-6.414c-1.173-0.871-2.883-0.607-3.756,0.573   c-0.457,0.616-0.654,1.392-0.543,2.127c0.104,0.687,0.468,1.288,1.017,1.689L61,40.933v18.278l-15.521-8.966l-1.653-14.771   c-0.165-1.378-1.313-2.417-2.673-2.417c-0.109,0-0.222,0.006-0.326,0.02c-1.476,0.169-2.549,1.524-2.391,3.033l1.262,10.748   l-11.641-6.677c-0.412-0.235-0.88-0.36-1.353-0.36c-0.978,0-1.886,0.526-2.37,1.374c-0.743,1.295-0.294,2.967,1.01,3.731   l11.715,6.718l-10.033,4.406c-0.67,0.294-1.185,0.83-1.448,1.509c-0.265,0.68-0.248,1.423,0.045,2.088   c0.576,1.328,2.187,2.006,3.599,1.412l13.738-6.032l15.575,8.93l-15.608,9.011l-13.621-5.933c-1.353-0.587-3.011,0.072-3.595,1.415   c-0.604,1.379,0.03,2.994,1.414,3.602l9.912,4.316l-11.622,6.71c-1.297,0.76-1.743,2.435-0.994,3.734   c0.486,0.842,1.396,1.365,2.37,1.365c0.485,0,0.959-0.129,1.362-0.366l11.7-6.755l-1.241,10.902   c-0.08,0.727,0.127,1.441,0.585,2.013c0.456,0.569,1.106,0.928,1.806,1.004c0.107,0.015,0.222,0.018,0.336,0.018   c1.39,0,2.556-1.042,2.713-2.432l1.564-14.908L61,68.706v18.16l-10.564,8.837c-1.128,0.945-1.256,2.67-0.294,3.833   c0.506,0.627,1.307,1.001,2.143,1.001c0.755,0,1.262-0.324,1.641-0.625L61,93.979v13.012c0,1.61,1.577,2.732,2.992,2.732   c1.423,0,3.008-1.122,3.008-2.732v-13.1l7.183,6.033c1.196,0.963,2.814,0.735,3.731-0.376c0.46-0.553,0.703-1.24,0.683-1.937   c-0.021-0.757-0.349-1.436-0.919-1.911L67,86.776V68.663l15.708,9.076l1.666,14.91c0.165,1.375,1.316,2.412,2.679,2.412   c0.129,0,0.209-0.007,0.297-0.02c0.72-0.079,1.366-0.437,1.819-1.005c0.458-0.574,0.664-1.293,0.579-2.024l-1.269-10.887   l11.459,6.571c0.411,0.237,0.881,0.362,1.359,0.362c0.979,0,1.887-0.527,2.368-1.375C104.41,85.383,103.96,83.71,102.656,82.955z" fill="#231F20"/></g></svg>