<?xml version="1.0" encoding="utf-8"?>
<!-- Generator: Adobe Illustrator 17.1.0, SVG Export Plug-In . SVG Version: 6.00 Build 0)  -->
<!DOCTYPE svg PUBLIC "-//W3C//DTD SVG 1.1//EN" "http://www.w3.org/Graphics/SVG/1.1/DTD/svg11.dtd">
<svg version="1.1" id="Layer_1" xmlns="http://www.w3.org/2000/svg" xmlns:xlink="http://www.w3.org/1999/xlink" x="0px" y="0px"
	 width="50px" height="50px" viewBox="0 0 50 50" enable-background="new 0 0 50 50" xml:space="preserve">
<path fill="#0C0F0D" d="M33.1,6.7C31.2,6,26.9,6,26.9,6c-2.7,0-4.3,1.1-5.4,2.6c-1.1,1.5-1.1,3.8-1.1,5.3v0.3v1.6v1.6h-3.5v5.1h3.5
	v17.8h6.5V22.4H32l0.4-5.1h-5.6v-1.6v-1.9v-0.5c0-1.4,1.2-1.9,2.6-1.9c0,0,1.4,0,2.8,0.4L33.1,6.7z"/>
<path fill="#033D4C" d="M33.1,6.7C31.2,6,26.9,6,26.9,6c-2.7,0-4.3,1.1-5.4,2.6c-1.1,1.5-1.1,3.8-1.1,5.3v0.3v1.6v1.6h-3.5v5.1h3.5
	v17.8h6.5V22.4H32l0.4-5.1h-5.6v-1.6v-1.9v-0.5c0-1.4,1.2-1.9,2.6-1.9c0,0,1.4,0,2.8,0.4L33.1,6.7z"/>
</svg>
