<?xml version="1.0" encoding="utf-8"?>
<!-- Generator: Adobe Illustrator 19.1.1, SVG Export Plug-In . SVG Version: 6.00 Build 0)  -->
<svg version="1.1" id="Layer_1" xmlns="http://www.w3.org/2000/svg" xmlns:xlink="http://www.w3.org/1999/xlink" x="0px" y="0px"
	 viewBox="-591 768 40 40" style="enable-background:new -591 768 40 40;" xml:space="preserve">
<style type="text/css">
	.st0{fill:#FBAF40;}
</style>
<path class="st0" d="M-550.9,804.7l-11.9-11.9c4.5-6.1,4-14.6-1.6-20.2c-6.1-6.1-16-6.1-22,0c-6.1,6.1-6.1,15.9,0,22
	c5.5,5.5,14.1,6,20.2,1.5l11.9,11.9L-550.9,804.7z M-583.1,791.4c-4.2-4.2-4.2-11.1,0-15.3c4.2-4.2,11.1-4.2,15.3,0
	c4.2,4.2,4.2,11.1,0,15.3C-572,795.6-578.9,795.6-583.1,791.4z"/>
</svg>
